<svg width="431" height="108" viewBox="0 0 431 108" fill="none" xmlns="http://www.w3.org/2000/svg">
<g clip-path="url(#clip0_8_168)">
<path d="M406.181 108H24.8187C11.1093 108 0.041748 97.0063 0.041748 83.4819V24.5582C0.041748 10.9916 11.1509 0.0401611 24.8187 0.0401611H406.223C419.933 0.0401611 431 11.0328 431 24.5582V83.4819C431 97.0475 419.892 108 406.181 108Z" fill="#E00B14"/>
<path d="M261.152 108H24.7777C11.1089 108 0.000732422 97.0063 0.000732422 83.482V24.517C0.000732422 10.9916 11.1099 0 24.7777 0H261.152C274.821 0 285.93 10.9926 285.93 24.517V83.4408C285.93 97.0064 274.821 108 261.152 108Z" fill="black"/>
<path d="M397.056 66.4837C399.823 61.6615 401.475 56.227 402.053 50.9554H393.505C393.298 54.2242 392.637 57.5341 391.523 60.4761C390.407 63.3778 388.961 65.9508 387.104 68.1175C384.336 71.3048 380.744 73.3479 376.698 73.3479C371.907 73.3479 368.604 71.3049 367.323 67.9135H358.156C356.669 71.4275 353.159 73.2253 348.741 73.2253C343.867 73.2253 338.87 69.7524 338.334 62.6841H366.951C367.694 59.2102 370.462 56.594 374.963 54.9189C374.963 54.9189 379.134 53.4077 383.263 51.6502C388.961 49.035 393.258 44.3767 393.258 38.4516C393.258 30.0339 385.989 27.1332 379.423 27.1332C371.123 27.1332 365.011 31.4234 365.011 38.2887C365.011 42.3336 367.241 46.1343 370.503 49.9349C368.768 50.5482 367.117 51.3244 365.589 52.3047C362.945 45.0725 356.876 40.4132 348.575 40.4132C337.631 40.4132 329.744 48.5454 329.744 59.9854C329.744 70.8554 336.806 80.172 349.154 80.172C354.811 80.172 359.106 78.1289 362.079 75.2684C365.094 78.333 369.637 80.172 375.211 80.172C382.067 80.172 387.642 77.4743 391.937 73.3077L397.429 79.2329H409.073L397.056 66.4837ZM379.422 33.4665C382.561 33.4665 385.121 35.2241 385.121 38.6969C385.121 41.8842 383.18 44.9891 378.844 46.9095L378.761 46.828C376.2 44.1314 373.764 41.0255 373.764 38.0836C373.765 35.1828 376.407 33.4665 379.422 33.4665ZM348.493 46.9507C353.489 46.9507 358.074 50.5472 358.28 56.4724H338.293C338.994 49.2803 344.486 46.9507 348.493 46.9507Z" fill="white"/>
<path d="M47.4903 80.172C44.3515 80.172 41.543 79.6411 39.1074 78.5372C36.6707 77.4332 34.6883 75.9622 33.0777 74.1242C31.4672 72.2853 30.2692 70.1205 29.4025 67.6672C28.5764 65.2159 28.1638 62.6007 28.1638 59.8628C28.1638 56.9611 28.618 54.3469 29.5264 51.9358C30.4348 49.5247 31.7151 47.4817 33.3257 45.7251C34.9362 43.9686 36.9187 42.6193 39.2313 41.6389C41.544 40.6586 44.1046 40.168 46.9121 40.168C49.9269 40.168 52.6105 40.7401 54.9648 41.8843C57.3182 43.0285 59.26 44.5809 60.8705 46.5828C62.4394 48.5856 63.6374 50.9143 64.3812 53.6521C65.1656 56.39 65.4135 59.332 65.2479 62.5595H36.878C36.9197 64.0717 37.2082 65.5024 37.7864 66.7693C38.3229 68.0764 39.0667 69.1794 39.9751 70.1607C40.8835 71.1008 41.9576 71.8368 43.1545 72.3667C44.3932 72.8986 45.7152 73.1429 47.1194 73.1429C51.7448 73.1429 54.8419 71.3864 56.3701 67.8311H64.7531C64.3395 69.3433 63.6374 70.8545 62.729 72.3255C61.8206 73.8377 60.6642 75.1458 59.26 76.29C57.8557 77.4332 56.1628 78.3733 54.1804 79.1093C52.2813 79.804 50.0509 80.172 47.4903 80.172ZM46.9121 46.7879C45.7152 46.7879 44.5172 46.992 43.3608 47.36C42.2045 47.728 41.1304 48.3001 40.222 49.1175C39.272 49.8937 38.5282 50.8751 37.8687 52.1007C37.2489 53.3264 36.9187 54.7571 36.877 56.391H56.5337C56.4921 54.92 56.2035 53.5717 55.667 52.3873C55.1305 51.1616 54.4283 50.1813 53.6022 49.3639C52.7345 48.5464 51.7438 47.9341 50.5874 47.4837C49.4311 46.992 48.2341 46.7879 46.9121 46.7879Z" fill="white"/>
<path d="M71.6067 30.9338H80.1553V41.0266H87.9194V47.1558H80.1553V67.9547C80.1553 69.9163 80.4855 71.1832 81.1053 71.8368C81.7252 72.4893 82.9638 72.7759 84.7806 72.7759H87.8777V79.2329H81.5595C79.4948 79.2329 77.8426 79.07 76.5216 78.7834C75.2413 78.4567 74.209 77.9248 73.5068 77.1898C72.8047 76.4136 72.3088 75.3921 72.0202 74.084C71.7723 72.7759 71.6077 71.142 71.6077 69.2216V47.1146H65.8677V40.9854H71.6077L71.6067 30.9338Z" fill="white"/>
<path d="M101.299 27.7466V36.2869H92.75V27.7466H101.299ZM101.299 41.0266V79.2329H92.75V41.0266H101.299Z" fill="white"/>
<path d="M131.775 51.7729C131.361 49.9752 130.33 48.6671 128.76 47.8507C127.191 47.0332 125.167 46.625 122.731 46.625C120.748 46.625 119.097 46.993 117.651 47.728C116.248 48.463 115.546 49.4855 115.546 50.7514C115.546 53.1213 117.404 54.6737 121.162 55.4509L126.407 56.5137C128.306 56.9219 130.123 57.4125 131.817 57.9846C133.509 58.5145 134.996 59.2103 136.236 60.068C137.475 60.9256 138.465 61.9884 139.167 63.214C139.869 64.4809 140.241 66.0343 140.241 67.8723C140.241 69.8752 139.787 71.6317 138.92 73.1841C138.053 74.7375 136.856 76.0044 135.327 77.025C133.799 78.0475 132.065 78.8237 130.082 79.3536C128.1 79.8855 125.994 80.171 123.723 80.171C121.246 80.171 118.974 79.8443 116.951 79.1897C114.927 78.5362 113.152 77.6373 111.706 76.4931C110.261 75.3479 109.063 74.0005 108.195 72.4481C107.327 70.8947 106.791 69.1784 106.584 67.3404H114.926C115.298 69.3825 116.248 70.9771 117.734 72.0801C119.221 73.2243 121.327 73.7964 124.052 73.7964C126.447 73.7964 128.348 73.347 129.793 72.4883C131.237 71.6297 131.94 70.4051 131.94 68.8928C131.94 67.3806 131.32 66.2364 130.039 65.42C128.759 64.6036 127.107 63.9892 125.043 63.581L119.221 62.3543C117.528 62.0286 116 61.5792 114.555 61.0473C113.11 60.5154 111.87 59.7794 110.838 58.9217C109.806 58.0641 108.979 56.9611 108.402 55.7344C107.782 54.4686 107.493 52.9564 107.493 51.2401C107.493 49.5237 107.906 48.0125 108.732 46.6632C109.558 45.3149 110.714 44.1707 112.16 43.2306C113.605 42.2905 115.257 41.5555 117.198 41.0246C119.098 40.4937 121.162 40.2484 123.31 40.2484C125.334 40.2484 127.233 40.4938 129.05 40.9432C130.868 41.4328 132.519 42.1276 133.964 43.1089C135.409 44.0893 136.648 45.2747 137.681 46.7457C138.713 48.1764 139.415 49.8917 139.787 51.8132H131.776L131.775 51.7729Z" fill="white"/>
<path d="M161.672 39.8815C164.067 39.8815 166.297 40.168 168.32 40.7401C170.344 41.3122 172.12 42.2523 173.606 43.5192C175.093 44.7861 176.209 46.4612 177.035 48.5455C177.819 50.6288 178.191 53.2038 178.149 56.2272C178.149 56.7178 178.149 57.3312 178.108 58.1064C178.066 58.8826 178.066 59.7412 178.066 60.6401C178.066 61.54 178.066 62.4801 178.024 63.4604C177.983 64.4417 177.983 65.3396 177.983 66.1983C177.983 68.6093 178.066 70.9802 178.272 73.3491C178.479 75.6777 178.768 77.6806 179.14 79.2752H171.294C171.17 78.4578 171.005 77.6806 170.881 76.9466C170.757 76.1694 170.633 75.1478 170.551 73.8397C169.354 75.9643 167.66 77.5589 165.471 78.6217C163.283 79.6845 160.722 80.2143 157.873 80.2143C155.766 80.2143 153.827 79.9288 152.092 79.3969C150.358 78.865 148.829 78.0888 147.549 77.0682C146.269 76.0879 145.32 74.8623 144.618 73.4727C143.915 72.0832 143.585 70.4896 143.585 68.732C143.585 66.3632 144.287 64.4005 145.65 62.8481C147.054 61.2947 148.912 59.9866 151.266 59.0072C153.619 58.0259 156.387 57.2497 159.525 56.7198C162.663 56.188 166.008 55.7375 169.559 55.3705V54.4304C169.559 52.8368 169.353 51.4885 168.899 50.4257C168.486 49.3629 167.866 48.5053 167.122 47.8517C166.38 47.1982 165.512 46.7477 164.521 46.5034C163.529 46.2581 162.415 46.0952 161.218 46.0952C159.029 46.0952 157.171 46.6673 155.684 47.8115C154.197 48.9557 153.413 50.672 153.331 53.0017H144.948C145.072 51.04 145.608 49.2835 146.475 47.6898C147.342 46.0962 148.499 44.7067 149.944 43.5212C151.389 42.377 153.123 41.4781 155.106 40.8246C157.088 40.2093 159.277 39.8815 161.672 39.8815ZM169.807 61.2937C166.752 61.5802 164.149 61.906 162.002 62.275C159.855 62.644 158.079 63.1337 156.675 63.7058C155.272 64.2769 154.28 64.9314 153.619 65.7478C152.959 66.524 152.669 67.4642 152.669 68.5681C152.669 70.2432 153.33 71.5101 154.61 72.4904C155.89 73.4305 157.625 73.9212 159.772 73.9212C162.91 73.9212 165.388 73.0625 167.163 71.3462C168.938 69.6299 169.806 66.7292 169.806 62.7244V61.2937H169.807Z" fill="white"/>
<path d="M193.801 79.2329H185.252V27.7466H193.801V79.2329Z" fill="white"/>
<path d="M217.463 39.8815C219.857 39.8815 222.088 40.168 224.111 40.7401C226.134 41.3122 227.911 42.2523 229.397 43.5192C230.884 44.7861 231.999 46.4612 232.824 48.5455C233.608 50.6288 233.981 53.2038 233.94 56.2272C233.94 56.7178 233.94 57.3312 233.898 58.1064C233.857 58.8826 233.857 59.7412 233.857 60.6401C233.857 61.54 233.857 62.4801 233.815 63.4604C233.775 64.4417 233.775 65.3396 233.775 66.1983C233.775 68.6093 233.857 70.9802 234.063 73.3491C234.269 75.6777 234.559 77.6806 234.931 79.2752H227.084C226.959 78.4578 226.795 77.6806 226.671 76.9466C226.547 76.1694 226.424 75.1478 226.341 73.8397C225.144 75.9643 223.45 77.5589 221.262 78.6217C219.073 79.6845 216.513 80.2143 213.663 80.2143C211.556 80.2143 209.616 79.9288 207.882 79.3969C206.147 78.865 204.619 78.0888 203.339 77.0682C202.059 76.0879 201.109 74.8623 200.407 73.4727C199.705 72.0832 199.375 70.4896 199.375 68.732C199.375 66.3632 200.077 64.4005 201.44 62.8481C202.844 61.2947 204.701 59.9866 207.056 59.0072C209.409 58.0259 212.177 57.2497 215.315 56.7198C218.454 56.188 221.798 55.7375 225.35 55.3705V54.4304C225.35 52.8368 225.144 51.4885 224.689 50.4257C224.277 49.3629 223.656 48.5053 222.913 47.8517C222.171 47.1982 221.303 46.7477 220.311 46.5034C219.32 46.2581 218.206 46.0952 217.008 46.0952C214.819 46.0952 212.96 46.6673 211.474 47.8115C209.987 48.9557 209.203 50.672 209.121 53.0017H200.738C200.862 51.04 201.398 49.2835 202.265 47.6898C203.132 46.0962 204.289 44.7067 205.734 43.5212C207.179 42.377 208.913 41.4781 210.896 40.8246C212.878 40.2093 215.067 39.8815 217.463 39.8815ZM225.598 61.2937C222.542 61.5802 219.941 61.906 217.793 62.275C215.645 62.643 213.87 63.1337 212.466 63.7058C211.061 64.2769 210.071 64.9314 209.41 65.7478C208.75 66.524 208.46 67.4642 208.46 68.5681C208.46 70.2432 209.121 71.5101 210.401 72.4904C211.681 73.4305 213.416 73.9212 215.563 73.9212C218.7 73.9212 221.179 73.0625 222.955 71.3462C224.73 69.6299 225.598 66.7292 225.598 62.7244V61.2937Z" fill="white"/>
<path d="M242.074 30.9338H250.622V41.0266H258.386V47.1558H250.622V67.9547C250.622 69.9163 250.952 71.1832 251.573 71.8368C252.191 72.4893 253.43 72.7759 255.248 72.7759H258.344V79.2329H252.026C249.961 79.2329 248.31 79.07 246.988 78.7834C245.708 78.4567 244.676 77.9248 243.973 77.1898C243.271 76.4136 242.776 75.3921 242.487 74.084C242.239 72.7759 242.074 71.142 242.074 69.2216V47.1146H236.334V40.9854H242.074V30.9338Z" fill="white"/>
<path d="M307.155 23.2511V29.8298C307.569 29.136 308.106 28.6454 308.807 28.2774C309.508 27.9094 310.335 27.7053 311.243 27.7053C312.069 27.7053 312.853 27.8692 313.596 28.1959C314.34 28.5227 314.96 29.0134 315.496 29.6257C316.033 30.239 316.446 31.0152 316.735 31.8729C317.025 32.7315 317.189 33.7119 317.189 34.8148C317.189 35.9178 317.025 36.8992 316.735 37.798C316.446 38.6557 316.034 39.4319 315.496 40.0452C314.96 40.6586 314.34 41.1492 313.596 41.476C312.853 41.8028 312.11 41.9656 311.243 41.9656C310.334 41.9656 309.508 41.7615 308.807 41.3935C308.106 41.0255 307.569 40.4947 307.155 39.8411V41.6389H304.1V23.2511H307.155ZM307.032 34.7736C307.032 35.5498 307.114 36.2446 307.321 36.8579C307.527 37.4713 307.733 37.9207 308.063 38.3289C308.394 38.7371 308.765 39.0237 309.22 39.1866C309.674 39.3917 310.129 39.4731 310.624 39.4731C311.698 39.4731 312.523 39.0649 313.143 38.2063C313.72 37.3888 314.051 36.2446 314.051 34.7736C314.051 33.3429 313.763 32.1986 313.143 31.3812C312.565 30.5638 311.697 30.1143 310.624 30.1143C310.129 30.1143 309.674 30.1968 309.22 30.4009C308.766 30.605 308.394 30.8905 308.063 31.2595C307.733 31.6275 307.485 32.1172 307.321 32.7305C307.114 33.3439 307.032 33.9974 307.032 34.7736Z" fill="white"/>
<path d="M318.306 46.0519V43.7635H319.462C319.792 43.7635 320.081 43.7635 320.33 43.7222C320.579 43.681 320.784 43.6408 320.99 43.4769C321.197 43.3542 321.361 43.1501 321.527 42.9048C321.691 42.6595 321.815 42.2915 321.98 41.8833L322.146 41.5565L317.148 27.9899H320.493L323.632 37.7559L326.771 27.9899H329.91L325.078 41.5967C324.748 42.4554 324.458 43.1903 324.127 43.7624C323.839 44.3345 323.468 44.784 323.095 45.1108C322.682 45.4375 322.227 45.6829 321.732 45.8055C321.196 45.9282 320.534 46.0096 319.791 46.0096H318.305L318.306 46.0519Z" fill="white"/>
</g>
<defs>
<clipPath id="clip0_8_168">
<rect width="431" height="108" fill="white"/>
</clipPath>
</defs>
</svg>
