<svg width="174" height="174" viewBox="0 0 174 174" fill="none" xmlns="http://www.w3.org/2000/svg">
<g clip-path="url(#clip0_1_42)">
<rect width="174" height="174" fill="#E00800"/>
<g clip-path="url(#clip1_1_42)">
<g clip-path="url(#clip2_1_42)">
<g clip-path="url(#clip3_1_42)">
<mask id="mask0_1_42" style="mask-type:luminance" maskUnits="userSpaceOnUse" x="45" y="58" width="484" height="59">
<path d="M528.659 58.8987H45.2842V116.549H528.659V58.8987Z" fill="white"/>
</mask>
<g mask="url(#mask0_1_42)">
<path d="M116.946 101.672C119.922 96.4469 121.63 90.5578 122.243 84.8017H113.137C112.918 88.3439 112.218 91.9305 110.992 95.1628C109.81 98.3065 108.278 101.14 106.308 103.443C103.331 106.897 99.5666 109.111 95.2326 109.111C90.1108 109.111 86.6088 106.897 85.2956 103.177H75.5772C74.0014 107.029 70.2803 108.933 65.5525 108.933C60.3869 108.933 55.09 105.17 54.4772 97.5097H84.9017C85.6896 93.7458 88.6226 90.9121 93.3942 89.0524C93.3942 89.0524 97.8155 87.4141 102.193 85.5102C108.278 82.6762 112.831 77.5842 112.831 71.1638C112.831 62.0424 105.126 58.8987 98.1219 58.8987C89.3229 58.8987 82.8004 63.5922 82.8004 71.031C82.8004 75.4146 85.1643 79.5325 88.6226 83.6946C86.7839 84.3588 84.9892 85.2002 83.3694 86.2627C80.5677 78.4255 74.0889 73.3335 65.2899 73.3335C53.6892 73.3335 45.2842 82.1449 45.2842 94.5873C45.2842 106.409 52.8137 116.549 65.9465 116.549C71.9876 116.549 76.5404 114.335 79.6923 111.191C82.9317 114.512 87.7471 116.549 93.6569 116.549C100.924 116.549 106.877 113.627 111.43 109.111L117.252 115.575H129.641L116.946 101.672ZM98.2094 65.8061C101.536 65.8061 104.294 67.7101 104.294 71.4738C104.294 74.9275 102.237 78.2927 97.5966 80.3738L97.5091 80.2852C94.7949 77.3628 92.2121 73.9977 92.2121 70.7653C92.2121 67.6658 95.0138 65.8061 98.2094 65.8061ZM65.3336 80.4623C70.6305 80.4623 75.4896 84.3588 75.7523 90.8234H54.4772C55.2213 82.9862 61.0873 80.4623 65.3336 80.4623Z" fill="white"/>
</g>
</g>
</g>
</g>
</g>
<defs>
<clipPath id="clip0_1_42">
<rect width="174" height="174" fill="white"/>
</clipPath>
<clipPath id="clip1_1_42">
<rect width="87" height="87" fill="white" transform="translate(43.5 43.5)"/>
</clipPath>
<clipPath id="clip2_1_42">
<rect width="87" height="87" fill="white" transform="translate(43.5 43.5)"/>
</clipPath>
<clipPath id="clip3_1_42">
<rect width="87" height="59.8125" fill="white" transform="translate(43.5 57.0938)"/>
</clipPath>
</defs>
</svg>
