<svg width="42" height="29" viewBox="0 0 42 29" fill="none" xmlns="http://www.w3.org/2000/svg">
<path d="M41.6303 2.1106L28.8926 14.4895L41.6303 26.8683C41.8606 26.3976 42.0003 25.8771 42.0003 25.3214V3.65748C42.0003 3.10168 41.8606 2.58135 41.6303 2.1106Z" fill="#D39931"/>
<path d="M38.3083 0.046875H3.6911C3.12287 0.046875 2.5909 0.183518 2.10962 0.408743L18.3898 16.2525C19.8293 17.6605 22.1701 17.6605 23.6096 16.2525L39.8898 0.408743C39.4085 0.183518 38.8765 0.046875 38.3083 0.046875Z" fill="#D39931"/>
<path d="M0.369961 2.1106C0.139699 2.58135 0 3.10168 0 3.65748V25.3214C0 25.8772 0.139699 26.3976 0.369961 26.8683L13.1077 14.4895L0.369961 2.1106Z" fill="#D39931"/>
<path d="M27.152 16.1913L25.3496 17.9543C22.9511 20.3004 19.0483 20.3004 16.6497 17.9543L14.8473 16.1913L2.10962 28.5701C2.5909 28.7954 3.12287 28.932 3.6911 28.932H38.3083C38.8765 28.932 39.4085 28.7954 39.8898 28.5701L27.152 16.1913Z" fill="#D39931"/>
</svg>
