<svg width="42" height="40" viewBox="0 0 42 40" fill="none" xmlns="http://www.w3.org/2000/svg">
<path d="M37.2959 27.4268C34.5736 25.4023 31.8108 24.176 29.1218 26.1974L27.5162 27.4191C26.3414 28.306 24.1572 32.4496 15.7123 24.0033C7.26907 15.5676 12.2935 14.2541 13.47 13.375L15.0844 12.1517C17.7593 10.1258 16.7498 7.57534 14.8206 4.94999L13.6564 3.35979C11.7184 0.740563 9.60805 -0.979598 6.92614 1.04331L5.47702 2.14421C4.29171 2.89497 0.978445 5.3353 0.174751 9.97133C-0.792496 15.5339 2.25873 21.9039 9.24929 28.8931C16.2311 35.8854 23.0668 39.3976 29.5421 39.3364C34.9235 39.2859 38.1735 36.7753 39.19 35.8624L40.6444 34.76C43.3192 32.7386 41.6573 30.6805 38.9332 28.6515L37.2959 27.4268Z" fill="#D39931"/>
</svg>
