<svg width="91" height="91" viewBox="0 0 91 91" fill="none" xmlns="http://www.w3.org/2000/svg">
<g clip-path="url(#clip0_9_224)">
<g clip-path="url(#clip1_9_224)">
<path d="M51.1536 67.4211V71.2739C51.1536 74.3786 48.6474 76.8849 45.5427 76.8849H19.321C16.2536 76.8849 13.71 74.3786 13.71 71.2739V19.1297C13.71 16.025 16.2536 13.5188 19.321 13.5188H45.5427C48.6474 13.5188 51.1536 16.025 51.1536 19.1297V22.9451" stroke="#0A0A0A" stroke-width="3.74062" stroke-linecap="round" stroke-linejoin="round"/>
<path d="M27.4305 69.366H37.4479M51.1535 39.284H61.1709M51.1535 46.9223H61.1709" stroke="#E00800" stroke-width="3.74062" stroke-linecap="round" stroke-linejoin="round"/>
<path d="M77.0757 54.2205C77.0763 54.8127 76.9232 55.3949 76.6315 55.9103C76.3397 56.4256 75.9192 56.8565 75.4111 57.1606C74.903 57.4648 74.3246 57.632 73.7326 57.6457C73.1405 57.6595 72.555 57.5194 72.0333 57.2392C71.4543 56.9295 70.7985 56.7927 70.144 56.8451C69.4894 56.8975 68.8637 57.1368 68.3413 57.5347L67.2416 58.3726C66.6365 58.8336 65.9053 59.0992 65.1454 59.134C64.3855 59.1687 63.6331 58.971 62.9885 58.5671L61.3763 57.5571C60.7375 57.1575 59.9929 56.9601 59.24 56.9908C58.4871 57.0215 57.761 57.2789 57.1569 57.7292L56.4649 58.2454C55.81 58.7346 55.0129 58.9957 54.1955 58.989C53.3781 58.9822 52.5854 58.7079 51.9387 58.208L50.9699 57.4561C50.4906 57.0854 49.911 56.8669 49.3062 56.8289C48.7015 56.7909 48.0991 56.9351 47.5772 57.2429C47.1168 57.5158 46.5923 57.6619 46.0572 57.6662C45.522 57.6706 44.9952 57.5332 44.5304 57.2679C44.0656 57.0027 43.6794 56.619 43.411 56.156C43.1426 55.693 43.0016 55.1671 43.0024 54.632V30.4414H77.0794L77.0757 54.2205Z" stroke="#E00800" stroke-width="3.74062" stroke-linecap="round" stroke-linejoin="round"/>
</g>
</g>
<defs>
<clipPath id="clip0_9_224">
<rect width="89.7749" height="89.7749" fill="white" transform="translate(0.61731 0.426712)"/>
</clipPath>
<clipPath id="clip1_9_224">
<rect width="89.7749" height="89.7749" fill="white" transform="translate(0.61731 0.426712)"/>
</clipPath>
</defs>
</svg>
