<svg xmlns="http://www.w3.org/2000/svg" width="268" height="56" viewBox="0 0 268 56" fill="none"><path d="M146.928 0.033159H155.933V53.7962H146.928V0.033159Z" fill="white"></path><path d="M171.759 16.9112H162.753V53.7962H171.759V16.9112Z" fill="white"></path><path d="M178.145 39.5148V3.91899H187.151V16.9233H206.449V24.9498H187.151V39.5148C187.151 44.4199 189.724 46.3522 193.433 46.3522C197.142 46.3522 199.715 44.4942 199.715 39.5148V38.5487H208.721V39.5148C208.721 49.6965 202.515 54.6001 193.435 54.6001C184.354 54.6001 178.148 49.695 178.148 39.5148H178.145Z" fill="white"></path><path d="M223.695 16.8854H214.688V53.7158H223.695V16.8854Z" fill="white"></path><path d="M27.2652 0.0741103C12.2085 0.0741103 0 12.0622 0 26.8457C0 41.6291 12.2085 53.6188 27.2652 53.6188C42.322 53.6188 54.5289 41.6306 54.5289 26.8457C54.5289 12.0607 42.3204 0.0741103 27.2652 0.0741103ZM27.2652 44.0179C17.6069 44.0179 9.7773 36.3297 9.7773 26.8457C9.7773 17.3616 17.6069 9.67493 27.2652 9.67493C36.9236 9.67493 44.7532 17.3632 44.7532 26.8472C44.7532 36.3312 36.9236 44.0179 27.2652 44.0179Z" fill="white"></path><path d="M140.535 33.9818V35.0011C140.54 34.8585 140.544 34.7205 140.544 34.5779C140.544 34.3762 140.54 34.179 140.535 33.9818Z" fill="#0095EB"></path><path d="M59.708 35.2619V16.1634H68.7145V35.2619C68.7145 42.2479 72.4988 45.5923 78.1752 45.5923C83.8516 45.5923 87.6343 42.2479 87.6343 35.2619V16.1634H96.6408V35.2619C96.6408 47.5231 89.2237 53.8402 78.1752 53.8402C67.1267 53.8402 59.708 47.5974 59.708 35.2619Z" fill="white"></path><path d="M248.402 15.3353C237.582 15.3353 228.81 23.9472 228.81 34.5779C228.81 45.2086 237.581 53.8159 248.402 53.8159C252.369 53.8159 256.063 52.6587 259.146 50.6718V53.8751H267.93V53.8629H267.991V35.1194C267.995 34.9389 268 34.7584 268 34.5779C268 23.9487 259.228 15.3353 248.402 15.3353ZM248.402 45.0812C242.505 45.0812 237.706 40.3687 237.706 34.5779C237.706 28.7871 242.505 24.0701 248.402 24.0701C254.299 24.0701 259.103 28.7825 259.103 34.5779C259.103 40.3733 254.304 45.0812 248.402 45.0812Z" fill="white"></path><path d="M140.535 33.7058V33.9818C140.531 33.8893 140.526 33.7968 140.523 33.7058H140.535Z" fill="#0095EB"></path><path d="M140.523 33.7058C140.058 23.4786 131.473 15.3353 120.947 15.3353C110.42 15.3353 101.355 23.9472 101.355 34.5779C101.355 45.2086 110.125 53.8159 120.947 53.8159C124.969 53.8159 128.71 52.6253 131.822 50.5838V53.8751H140.534L140.535 33.9818C140.531 33.8893 140.526 33.7968 140.523 33.7058ZM131.853 35.0011C131.848 35.1558 131.836 35.3074 131.824 35.4546C131.371 40.9557 126.665 45.292 120.948 45.292C114.932 45.292 110.039 40.487 110.039 34.5794C110.039 28.6718 114.932 23.8623 120.948 23.8623C126.964 23.8623 131.862 28.6673 131.862 34.5794C131.862 34.722 131.858 34.863 131.853 35.0011Z" fill="white"></path><path d="M53.1836 56H41.8555L23.8131 32.092H35.1411L53.1836 56Z" fill="#0095EB"></path><path d="M171.314 9.61628C173.554 7.41642 173.554 3.84975 171.314 1.64989C169.073 -0.549965 165.441 -0.549963 163.201 1.64989C160.96 3.84975 160.96 7.41642 163.201 9.61628C165.441 11.8161 169.073 11.8161 171.314 9.61628Z" fill="white"></path><path d="M224.855 6.53997C225.363 3.46927 223.241 0.575009 220.113 0.0754645C216.986 -0.42408 214.039 1.66025 213.53 4.73095C213.021 7.80165 215.144 10.6959 218.271 11.1955C221.398 11.695 224.346 9.61067 224.855 6.53997Z" fill="white"></path></svg>